<svg width="1920" height="688" viewBox="0 0 1920 688" fill="none" xmlns="http://www.w3.org/2000/svg">
<mask id="mask0_28_5" style="mask-type:alpha" maskUnits="userSpaceOnUse" x="0" y="0" width="1920" height="688">
<rect width="1920" height="688" fill="#D9D9D9"/>
</mask>
<g mask="url(#mask0_28_5)">
<path d="M1825.85 967.037C1949.22 889.605 2222.69 852.253 2212.2 847.275C1875.6 687.611 1599.14 681.899 1446.36 657.5C1293.58 633.1 825.359 660.565 610.345 677.348C629.534 666.362 759.529 638.9 1052.12 575.982C1344.72 513.063 1956.55 591.625 2235.12 643.891C2183.21 571.4 2009.59 390.383 1730.48 246.235C1176.33 -15.7748 703.381 305.421 456.692 433.171C259.341 535.371 5.99933 543.452 -96.0024 534.718C72.2243 659.053 494.871 953.594 839.647 1137.07C1270.62 1366.42 1671.64 1063.83 1825.85 967.037Z" fill="#97C849"/>
<path d="M1566.85 919.037C1690.22 841.605 1963.7 804.253 1953.2 799.275C1616.6 639.611 1340.14 633.899 1187.36 609.5C1034.58 585.1 566.361 612.565 351.347 629.348C370.536 618.362 500.531 590.9 793.125 527.982C1085.72 465.063 1697.55 543.625 1976.12 595.891C1924.21 523.4 1750.6 342.383 1471.48 198.235C917.328 -63.7748 444.383 257.421 197.694 385.171C0.342456 487.371 -252.999 495.452 -355 486.718C-186.774 611.053 235.873 905.594 580.649 1089.07C1011.62 1318.42 1412.64 1015.83 1566.85 919.037Z" fill="#97C849" fill-opacity="0.62"/>
</g>
</svg>
