<svg width="116" height="29" viewBox="0 0 116 29" fill="none" xmlns="http://www.w3.org/2000/svg">
<path d="M42.3315 8.08226C41.7022 8.23997 40.728 9.05063 40.7453 8.9975C41.2998 7.29375 42.1484 6.32501 42.5508 5.71672C42.9531 5.10844 44.5067 3.59525 45.2332 2.91468C45.1386 2.94285 44.6451 3.29486 43.5309 4.08337C42.4167 4.87189 40.7453 7.24212 40.036 8.37796C39.9715 7.95085 39.9483 6.73334 40.3713 5.28022C41.2869 2.47819 43.7759 1.9572 44.9495 1.54887C45.8883 1.2222 46.7077 0.380176 47 0C46.8624 1.00442 46.4609 3.46664 45.9554 5.28022C45.3235 7.5472 43.1182 7.88514 42.3315 8.08226Z" fill="#97C849"/>
<path d="M6.54785 15.4766H12.0938V22.4023C11.4316 22.6309 10.6729 22.8184 9.81738 22.9648C8.96191 23.1055 8.06543 23.1758 7.12793 23.1758C5.8916 23.1758 4.80762 22.9355 3.87598 22.4551C2.94434 21.9746 2.21777 21.2451 1.69629 20.2666C1.1748 19.2822 0.914062 18.04 0.914062 16.54C0.914062 15.1924 1.17188 14.0293 1.6875 13.0508C2.20312 12.0664 2.96191 11.3076 3.96387 10.7744C4.97168 10.2354 6.20508 9.96582 7.66406 9.96582C8.4668 9.96582 9.22852 10.042 9.94922 10.1943C10.6699 10.3467 11.2969 10.54 11.8301 10.7744L10.7314 13.499C10.2686 13.2705 9.78809 13.1006 9.29004 12.9893C8.79199 12.8721 8.25586 12.8135 7.68164 12.8135C6.91406 12.8135 6.2959 12.9863 5.82715 13.332C5.36426 13.6777 5.02734 14.1406 4.81641 14.7207C4.60547 15.2949 4.5 15.9307 4.5 16.6279C4.5 17.4248 4.61133 18.0986 4.83398 18.6494C5.0625 19.1943 5.39355 19.6104 5.82715 19.8975C6.2666 20.1787 6.79688 20.3193 7.41797 20.3193C7.62305 20.3193 7.87207 20.3047 8.16504 20.2754C8.46387 20.2461 8.68945 20.2109 8.8418 20.1699V18.1572H6.54785V15.4766ZM18.9229 10.1504C20.0889 10.1504 21.0586 10.2939 21.832 10.5811C22.6055 10.8623 23.1855 11.2842 23.5723 11.8467C23.9648 12.4092 24.1611 13.1094 24.1611 13.9473C24.1611 14.4688 24.0732 14.9434 23.8975 15.3711C23.7217 15.7988 23.4697 16.1826 23.1416 16.5225C22.8193 16.8564 22.4326 17.1494 21.9814 17.4014L25.7256 23H21.7881L19.0635 18.3242H18.1846V23H14.7129V10.1504H18.9229ZM18.8701 12.7783H18.1846V15.7139H18.835C19.3682 15.7139 19.8047 15.5967 20.1445 15.3623C20.4844 15.1279 20.6543 14.709 20.6543 14.1055C20.6543 13.6895 20.5137 13.3643 20.2324 13.1299C19.9512 12.8955 19.4971 12.7783 18.8701 12.7783ZM34.7783 23L34.1455 20.5918H29.9707L29.3203 23H25.5059L29.6982 10.0977H34.3301L38.5752 23H34.7783ZM33.4248 17.7441L32.8711 15.6348C32.8125 15.4062 32.7275 15.0811 32.6162 14.6592C32.5049 14.2314 32.3936 13.792 32.2822 13.3408C32.1768 12.8838 32.0947 12.5088 32.0361 12.2158C31.9834 12.5088 31.9072 12.8721 31.8076 13.3057C31.7139 13.7334 31.6143 14.1582 31.5088 14.5801C31.4092 15.002 31.3213 15.3535 31.2451 15.6348L30.6914 17.7441H33.4248ZM39.9727 23V10.1504H43.4619V23H39.9727ZM58.4824 23H53.9297L49.2363 13.9473H49.1572C49.1865 14.2227 49.2129 14.5537 49.2363 14.9404C49.2598 15.3271 49.2803 15.7227 49.2979 16.127C49.3154 16.5254 49.3242 16.8857 49.3242 17.208V23H46.248V10.1504H50.7832L55.459 19.0801H55.5117C55.4941 18.7988 55.4766 18.4736 55.459 18.1045C55.4414 17.7295 55.4238 17.3516 55.4062 16.9707C55.3945 16.5898 55.3887 16.2529 55.3887 15.96V10.1504H58.4824V23ZM69.6621 19.0977C69.6621 19.7949 69.4863 20.457 69.1348 21.084C68.7832 21.7051 68.2354 22.209 67.4912 22.5957C66.7529 22.9824 65.7979 23.1758 64.626 23.1758C64.04 23.1758 63.5244 23.1494 63.0791 23.0967C62.6396 23.0439 62.2295 22.959 61.8486 22.8418C61.4678 22.7188 61.0723 22.5605 60.6621 22.3672V19.2734C61.3594 19.625 62.0625 19.8945 62.7715 20.082C63.4805 20.2637 64.1221 20.3545 64.6963 20.3545C65.042 20.3545 65.3232 20.3135 65.54 20.2314C65.7627 20.1494 65.9268 20.0381 66.0322 19.8975C66.1377 19.751 66.1904 19.584 66.1904 19.3965C66.1904 19.1738 66.1113 18.9863 65.9531 18.834C65.8008 18.6758 65.5547 18.5117 65.2148 18.3418C64.875 18.1719 64.4268 17.9609 63.8701 17.709C63.3955 17.4863 62.9648 17.2578 62.5781 17.0234C62.1973 16.7891 61.8691 16.5225 61.5938 16.2236C61.3242 15.9189 61.1162 15.5645 60.9697 15.1602C60.8232 14.7559 60.75 14.2783 60.75 13.7275C60.75 12.9014 60.9521 12.21 61.3564 11.6533C61.7666 11.0908 62.335 10.6689 63.0615 10.3877C63.7939 10.1064 64.6377 9.96582 65.5928 9.96582C66.4307 9.96582 67.1836 10.0596 67.8516 10.2471C68.5254 10.4346 69.1289 10.6484 69.6621 10.8887L68.5986 13.5693C68.0479 13.3174 67.5059 13.1182 66.9727 12.9717C66.4395 12.8193 65.9443 12.7432 65.4873 12.7432C65.1885 12.7432 64.9424 12.7812 64.749 12.8574C64.5615 12.9277 64.4209 13.0244 64.3271 13.1475C64.2393 13.2705 64.1953 13.4111 64.1953 13.5693C64.1953 13.7686 64.2715 13.9473 64.4238 14.1055C64.582 14.2637 64.8428 14.4365 65.2061 14.624C65.5752 14.8057 66.0762 15.043 66.709 15.3359C67.3359 15.6172 67.8691 15.9219 68.3086 16.25C68.748 16.5723 69.082 16.9619 69.3105 17.4189C69.5449 17.8701 69.6621 18.4297 69.6621 19.0977ZM79.2773 23H71.6484V10.1504H79.2773V12.9365H75.1201V14.958H78.9697V17.7441H75.1201V20.1699H79.2773V23ZM93.7617 23H89.209L84.5156 13.9473H84.4365C84.4658 14.2227 84.4922 14.5537 84.5156 14.9404C84.5391 15.3271 84.5596 15.7227 84.5771 16.127C84.5947 16.5254 84.6035 16.8857 84.6035 17.208V23H81.5273V10.1504H86.0625L90.7383 19.0801H90.791C90.7734 18.7988 90.7559 18.4736 90.7383 18.1045C90.7207 17.7295 90.7031 17.3516 90.6855 16.9707C90.6738 16.5898 90.668 16.2529 90.668 15.96V10.1504H93.7617V23ZM104.941 19.0977C104.941 19.7949 104.766 20.457 104.414 21.084C104.062 21.7051 103.515 22.209 102.771 22.5957C102.032 22.9824 101.077 23.1758 99.9053 23.1758C99.3193 23.1758 98.8037 23.1494 98.3584 23.0967C97.9189 23.0439 97.5088 22.959 97.1279 22.8418C96.7471 22.7188 96.3516 22.5605 95.9414 22.3672V19.2734C96.6387 19.625 97.3418 19.8945 98.0508 20.082C98.7598 20.2637 99.4014 20.3545 99.9756 20.3545C100.321 20.3545 100.603 20.3135 100.819 20.2314C101.042 20.1494 101.206 20.0381 101.312 19.8975C101.417 19.751 101.47 19.584 101.47 19.3965C101.47 19.1738 101.391 18.9863 101.232 18.834C101.08 18.6758 100.834 18.5117 100.494 18.3418C100.154 18.1719 99.7061 17.9609 99.1494 17.709C98.6748 17.4863 98.2441 17.2578 97.8574 17.0234C97.4766 16.7891 97.1484 16.5225 96.873 16.2236C96.6035 15.9189 96.3955 15.5645 96.249 15.1602C96.1025 14.7559 96.0293 14.2783 96.0293 13.7275C96.0293 12.9014 96.2314 12.21 96.6357 11.6533C97.0459 11.0908 97.6143 10.6689 98.3408 10.3877C99.0732 10.1064 99.917 9.96582 100.872 9.96582C101.71 9.96582 102.463 10.0596 103.131 10.2471C103.805 10.4346 104.408 10.6484 104.941 10.8887L103.878 13.5693C103.327 13.3174 102.785 13.1182 102.252 12.9717C101.719 12.8193 101.224 12.7432 100.767 12.7432C100.468 12.7432 100.222 12.7812 100.028 12.8574C99.8408 12.9277 99.7002 13.0244 99.6064 13.1475C99.5186 13.2705 99.4746 13.4111 99.4746 13.5693C99.4746 13.7686 99.5508 13.9473 99.7031 14.1055C99.8613 14.2637 100.122 14.4365 100.485 14.624C100.854 14.8057 101.355 15.043 101.988 15.3359C102.615 15.6172 103.148 15.9219 103.588 16.25C104.027 16.5723 104.361 16.9619 104.59 17.4189C104.824 17.8701 104.941 18.4297 104.941 19.0977ZM114.557 23H106.928V10.1504H114.557V12.9365H110.399V14.958H114.249V17.7441H110.399V20.1699H114.557V23Z" fill="black"/>
</svg>
