<svg width="575" height="575" viewBox="0 0 575 575" fill="none" xmlns="http://www.w3.org/2000/svg">
<mask id="mask0_25_441" style="mask-type:alpha" maskUnits="userSpaceOnUse" x="22" y="147" width="553" height="256">
<path d="M119.766 208.074C90.5434 226.416 25.7638 235.264 28.25 236.443C107.981 274.263 173.467 275.616 209.656 281.396C245.845 287.175 356.754 280.669 407.685 276.694C403.14 279.296 372.348 285.801 303.04 300.705C233.733 315.609 88.8068 296.999 22.8197 284.619C35.1175 301.79 76.2414 344.668 142.355 378.813C273.62 440.876 385.648 364.794 444.082 334.533C490.829 310.324 550.839 308.41 575 310.479C535.152 281.027 435.038 211.259 353.37 167.798C251.285 113.472 156.293 185.148 119.766 208.074Z" fill="#97C849"/>
</mask>
<g mask="url(#mask0_25_441)">
<path d="M119.766 208.074C90.5434 226.416 25.7638 235.264 28.25 236.443C107.981 274.263 173.467 275.616 209.656 281.396C245.845 287.175 356.754 280.669 407.685 276.694C403.14 279.296 372.348 285.801 303.04 300.705C233.733 315.609 88.8068 296.999 22.8197 284.619C35.1175 301.79 76.2414 344.668 142.355 378.813C273.62 440.876 385.648 364.794 444.082 334.533C490.829 310.324 550.839 308.41 575 310.479C535.152 281.027 435.038 211.259 353.37 167.798C251.285 113.472 156.293 185.148 119.766 208.074Z" fill="#97C849"/>
<path opacity="0.2" d="M34.4877 237.916C64.3105 240.248 134.552 236.616 176.937 203.428C229.918 161.943 326.384 177.437 385.863 216.923C445.342 256.409 553.303 299.894 598.287 294.396M69.9751 264.907C86.9691 256.41 129.654 240.215 164.441 243.414C207.926 247.413 211.425 189.933 281.4 203.428C351.375 216.923 356.873 285.399 442.343 298.895C510.718 309.691 572.13 307.725 594.289 305.392M91.4675 284.9C121.79 267.906 193.231 238.216 236.416 255.41C290.397 276.902 280.4 331.883 343.878 336.381C407.355 340.88 394.86 309.391 488.326 313.389C563.1 316.588 590.123 314.722 594.289 313.389M27.9901 284.9C77.9723 336.381 152.946 373.868 210.925 367.37C268.904 360.873 303.892 379.866 350.375 370.369C383.158 363.672 447.841 329.09 478.83 327.384M69.9751 284.9C85.9694 313.389 197.43 303.393 210.925 327.384C224.42 351.376 274.902 340.88 300.393 348.877C325.884 356.874 426.848 323.386 462.835 318.887C487.626 321.686 506.82 325.718 513.317 327.384" stroke="black"/>
</g>
</svg>
