<svg width="272" height="320" viewBox="0 0 272 320" fill="none" xmlns="http://www.w3.org/2000/svg">
<path d="M90.396 287C65.996 292.6 28.2256 321.387 28.896 319.5C50.396 259 83.296 224.6 98.896 203C114.496 181.4 174.729 127.667 202.896 103.5C199.229 104.5 180.096 117 136.896 145C93.696 173 28.896 257.167 1.396 297.5C-1.104 282.333 -2.004 239.1 14.396 187.5C49.896 88 146.396 69.5 191.896 55C228.296 43.4 260.063 13.5 271.396 0C266.063 35.6667 250.496 123.1 230.896 187.5C206.396 268 120.896 280 90.396 287Z" fill="#97C849"/>
</svg>
