<svg width="204" height="264" viewBox="0 0 204 264" fill="none" xmlns="http://www.w3.org/2000/svg">
<path d="M131.594 235.143C150.665 240.581 179.353 264.905 178.901 263.385C164.398 214.665 139.796 186.106 128.349 168.383C116.903 150.66 71.4778 105.684 50.196 85.411C53.0553 86.3536 67.6741 97.0288 100.69 120.955C133.706 144.882 181.483 214.107 201.568 247.133C204.174 235.247 206.677 201.106 195.841 159.633C171.879 79.5007 96.3027 60.8745 60.9078 47.525C32.5918 36.8454 8.69955 11.8907 0.292921 0.748322C3.03444 29.166 11.7269 98.9325 24.5645 150.657C40.6115 215.313 107.755 228.344 131.594 235.143Z" fill="#BFFA63"/>
</svg>
