<svg width="212" height="140" viewBox="0 0 212 140" fill="none" xmlns="http://www.w3.org/2000/svg">
<path d="M158.568 132.673C173.727 131.322 200.967 140.845 200.225 139.882C176.444 108.993 150.968 95.3144 137.896 85.775C124.824 76.2357 79.9168 56.5303 59.0971 47.8701C61.4048 47.7585 74.8128 51.3805 105.044 59.4295C135.275 67.4786 188.532 103.896 211.999 122.015C210.599 112.789 203.01 87.6604 183.848 60.9518C144.656 10.1779 85.3882 17.6267 56.3595 17.8036C33.1365 17.9451 9.15974 6.65116 0.0742202 0.986532C9.84864 20.5756 35.2509 68.128 58.6645 101.625C87.9315 143.497 139.62 134.362 158.568 132.673Z" fill="#97C849"/>
</svg>
