<svg width="25" height="24" viewBox="0 0 25 24" fill="none" xmlns="http://www.w3.org/2000/svg">
<path d="M18.4461 15.75V10.75C18.4461 7.68 16.8219 5.11 13.9894 4.43V3.75C13.9894 2.92 13.316 2.25 12.494 2.25C11.672 2.25 11.0183 2.92 11.0183 3.75V4.43C8.17596 5.11 6.56166 7.67 6.56166 10.75V15.75L5.27418 17.04C4.65025 17.67 5.08601 18.75 5.96744 18.75H19.0106C19.892 18.75 20.3377 17.67 19.7137 17.04L18.4461 15.75ZM12.494 21.75C13.5834 21.75 14.4747 20.85 14.4747 19.75H10.5132C10.5132 20.2804 10.7219 20.7891 11.0934 21.1642C11.4648 21.5393 11.9686 21.75 12.494 21.75ZM7.32424 4.48C7.7402 4.1 7.7501 3.45 7.35395 3.05C7.17186 2.86705 6.9265 2.7627 6.66965 2.75897C6.4128 2.75524 6.16457 2.85242 5.97734 3.03C4.24916 4.62127 3.10733 6.75791 2.73884 9.09C2.64971 9.7 3.11518 10.25 3.72921 10.25C4.20458 10.25 4.62054 9.9 4.69977 9.42C4.99163 7.5195 5.91755 5.77665 7.32424 4.48ZM19.0403 3.03C18.6441 2.66 18.0301 2.67 17.6538 3.05C17.2576 3.45 17.2774 4.09 17.6835 4.47C19.0502 5.74 20.0109 7.47 20.308 9.41C20.3773 9.89 20.7932 10.24 21.2785 10.24C21.8826 10.24 22.358 9.69 22.259 9.08C21.8826 6.71 20.7239 4.6 19.0403 3.03Z" fill="#AE1E0D"/>
</svg>
